<svg width="32" height="32" viewBox="0 0 32 32" fill="none" xmlns="http://www.w3.org/2000/svg">
<path fill-rule="evenodd" clip-rule="evenodd" d="M32 16C32 24.8366 24.8366 32 16 32C7.16344 32 0 24.8366 0 16C0 7.16344 7.16344 0 16 0C24.8366 0 32 7.16344 32 16ZM9.49443 16C9.49443 18.1363 7.76261 19.8681 5.6263 19.8681C3.48999 19.8681 1.75817 18.1363 1.75817 16C1.75817 13.8637 3.48999 12.1318 5.6263 12.1318C7.76261 12.1318 9.49443 13.8637 9.49443 16ZM26.3735 19.8681C28.5098 19.8681 30.2416 18.1363 30.2416 16C30.2416 13.8637 28.5098 12.1318 26.3735 12.1318C24.2371 12.1318 22.5053 13.8637 22.5053 16C22.5053 18.1363 24.2371 19.8681 26.3735 19.8681ZM25.3186 6.68134C25.3186 8.81765 23.5868 10.5495 21.4505 10.5495C19.3142 10.5495 17.5824 8.81765 17.5824 6.68134C17.5824 4.54503 19.3142 2.81321 21.4505 2.81321C23.5868 2.81321 25.3186 4.54503 25.3186 6.68134ZM21.4505 29.1868C23.5868 29.1868 25.3186 27.455 25.3186 25.3187C25.3186 23.1824 23.5868 21.4506 21.4505 21.4506C19.3142 21.4506 17.5824 23.1824 17.5824 25.3187C17.5824 27.455 19.3142 29.1868 21.4505 29.1868ZM14.7693 6.68134C14.7693 8.81765 13.0375 10.5495 10.9012 10.5495C8.76485 10.5495 7.03303 8.81765 7.03303 6.68134C7.03303 4.54503 8.76485 2.81321 10.9012 2.81321C13.0375 2.81321 14.7693 4.54503 14.7693 6.68134ZM10.9012 29.1868C13.0375 29.1868 14.7693 27.455 14.7693 25.3187C14.7693 23.1824 13.0375 21.4506 10.9012 21.4506C8.76485 21.4506 7.03303 23.1824 7.03303 25.3187C7.03303 27.455 8.76485 29.1868 10.9012 29.1868Z" fill="url(#paint0_linear_106_20)"/>
<defs>
<linearGradient id="paint0_linear_106_20" x1="0" y1="16" x2="32" y2="16" gradientUnits="userSpaceOnUse">
<stop stop-color="#1ED5A9"/>
<stop offset="1" stop-color="#01B4E4"/>
</linearGradient>
</defs>
</svg>
